{"title":"Seeking Justice 2011 CaM XviD-26K.","uid":6854577,"size":915755797,"categoryP":"video","categoryS":"movies","magnet":"?xt=urn:btih:03095e2380aa42b5d2950db7e0b4b44f043771a2&amp;dn=Seeking+Justice+2011+CaM+XviD-26K.&amp;tr=udp%3A%2F%2Ftracker.openbittorrent.com%3A80&amp;tr=udp%3A%2F%2Fopen.demonii.com%3A1337&amp;tr=udp%3A%2F%2Ftracker.coppersurfer.tk%3A6969&amp;tr=udp%3A%2F%2Fexodus.desync.com%3A6969","seeders":0,"leechers":0,"uploader":"moviesp2p","files":3,"time":1322653650,"description":"Imdb: &lt;a href=&quot;\nhttp://www.imdb.com/title/tt1214962/&quot; rel=&quot;nofollow&quot; target=&quot;_NEW&quot;&gt;\nhttp://www.imdb.com/title/tt1214962/&lt;/a&gt;\n\nPlot: After his wife is assaulted, a husband enlists the services of a vigilante group to help him settle the score.\n\nSource:\nFYA\n\nNotes:\nEncoded video and added filters enjoy \nEncoded by LoGiCurL\n\nGreetz\n\nGoes out to the people next door you know what i mean haha  and to to the punjabi squad BRUAH CHAKDEH PAJI! \n\n\n\nFormat                                   : AVI\nFormat/Info                              : Audio Video Interleave\nFile size                                : 867 MiB\nDuration                                 : 1h 39mn\nOverall bit rate                         : 1 219 Kbps\n\nVideo\nID                                       : 0\nFormat                                   : MPEG-4 Visual\nFormat profile                           : Advanced Simple@L5\nFormat settings, BVOP                    : 2\nFormat settings, QPel                    : No\nFormat settings, GMC                     : No warppoints\nFormat settings, Matrix                  : Default (H.263)\nCodec ID                                 : XVID\nCodec ID/Hint                            : XviD\nDuration                                 : 1h 39mn\nBit rate                                 : 950 Kbps\nWidth                                    : 720 pixels\nHeight                                   : 304 pixels\nDisplay aspect ratio                     : 2.35:1\nFrame rate                               : 29.970 fps\nColor space                              : YUV\nChroma subsampling                       : 4:2:0\nBit depth                                : 8 bits\nScan type                                : Progressive\nCompression mode                         : Lossy\nBits/(Pixel*Frame)                       : 0.145\nStream size                              : 675 MiB (78%)\nWriting library                          : XviD 63\n\nAudio\nID                                       : 1\nFormat                                   : MPEG Audio\nFormat version                           : Version 1\nFormat profile                           : Layer 3\nMode                                     : Joint stereo\nMode extension                           : MS Stereo\nCodec ID                                 : 55\nCodec ID/Hint                            : MP3\nDuration                                 : 1h 39mn\nBit rate mode                            : Constant\nBit rate                                 : 256 Kbps\nChannel(s)                               : 2 channels\nSampling rate                            : 48.0 KHz\nCompression mode                         : Lossy\nStream size                              : 182 MiB (21%)\nAlignment                                : Split accross interleaves\nInterleave, duration                     : 24 ms (0.72 video frame)\n\n[imgw=http://img803.imageshack.us/img803/5523/vlcsnap2011113000h26m51.png]\n[imgw=http://img46.imageshack.us/img46/9743/vlcsnap2011113000h27m04.png]\n[imgw=http://img412.imageshack.us/img412/583/vlcsnap2011113000h27m07.png]\n[imgw=http://img818.imageshack.us/img818/7434/vlcsnap2011113000h27m11.png]","torrent":{"xt":"urn:btih:03095e2380aa42b5d2950db7e0b4b44f043771a2","amp;dn":"Seeking+Justice+2011+CaM+XviD-26K.","amp;tr":["udp%3A%2F%2Ftracker.openbittorrent.com%3A80","udp%3A%2F%2Fopen.demonii.com%3A1337","udp%3A%2F%2Ftracker.coppersurfer.tk%3A6969","udp%3A%2F%2Fexodus.desync.com%3A6969"],"infoHash":"03095e2380aa42b5d2950db7e0b4b44f043771a2","infoHashBuffer":{"type":"Buffer","data":[3,9,94,35,128,170,66,181,210,149,13,183,224,180,180,79,4,55,113,162]},"announce":[],"urlList":[]}}